<svg width="25" height="24" viewBox="0 0 25 24" fill="none" xmlns="http://www.w3.org/2000/svg">
<path fill-rule="evenodd" clip-rule="evenodd" d="M14.435 1.694C15.0596 0.743174 16.1045 0.0462501 16.9757 0.000138008C17.0472 -0.0035251 17.1107 0.0661458 17.1186 0.15995C17.2197 1.357 16.8857 2.69338 16.2252 3.73471C15.5977 4.72088 14.6788 5.33333 13.827 5.33333C13.7673 5.33326 13.7072 5.33025 13.6484 5.32428C13.5834 5.31775 13.5308 5.25289 13.5222 5.16885C13.3856 3.82571 13.9041 2.49321 14.435 1.694ZM6.06641 20.865C3.77843 17.562 2.46312 12.1145 4.53213 8.52489C5.62019 6.63287 7.59378 5.43817 9.68245 5.40744C9.70323 5.40704 9.72433 5.4068 9.74576 5.4068C10.644 5.4068 11.4926 5.74342 12.2412 6.04049L12.2419 6.04075C12.8014 6.2627 13.2847 6.45437 13.6571 6.45437C13.9886 6.45437 14.4694 6.26488 15.0259 6.04547C15.8322 5.72762 16.8357 5.33203 17.8834 5.33203C18.0175 5.33203 18.1511 5.33853 18.2805 5.35145C19.1725 5.38979 21.3879 5.70853 22.8334 7.82341C22.8639 7.86801 22.8751 7.92321 22.8644 7.97623C22.8536 8.02934 22.8219 8.07579 22.7764 8.10508L22.7568 8.11727C22.3369 8.37704 20.2427 9.81025 20.2696 12.5167C20.2986 15.848 23.0542 17.0702 23.3684 17.1986C23.371 17.1997 23.3805 17.2037 23.383 17.2049C23.4762 17.2476 23.5221 17.3537 23.4896 17.4508L23.4827 17.4726C23.312 18.0192 22.8062 19.4497 21.7978 20.923L21.7976 20.9233C20.8313 22.3343 19.7361 23.9336 17.9523 23.9668C17.1208 23.9824 16.5573 23.7387 16.0108 23.5023L16.0062 23.5003L16.0059 23.5002C15.4501 23.2597 14.8753 23.0111 13.9747 23.0111C13.0278 23.0111 12.4242 23.2682 11.8405 23.5169L11.8399 23.5171C11.3202 23.7384 10.7826 23.9673 10.0389 23.9969C10.0082 23.9981 9.97829 23.9987 9.94844 23.9987C8.36474 23.9987 7.20847 22.5164 6.06641 20.865Z" fill="black"/>
</svg>
