<svg width="32" height="38" viewBox="0 0 32 38" fill="none" xmlns="http://www.w3.org/2000/svg">
<path d="M4 36H28V38H4V36Z" fill="#DB3226"/>
<circle cx="16" cy="8" r="6" stroke="#2D71C6" stroke-width="1.5" stroke-miterlimit="10" stroke-linecap="square"/>
<path d="M27.25 29C27.25 29.4142 27.5858 29.75 28 29.75C28.4142 29.75 28.75 29.4142 28.75 29H27.25ZM3.25 29C3.25 29.4142 3.58579 29.75 4 29.75C4.41421 29.75 4.75 29.4142 4.75 29H3.25ZM10.8561 15.203L11.4044 14.6912L10.8561 15.203ZM15.2689 19.931L14.7207 20.4428L15.2689 19.931ZM16.7311 19.931L16.1828 19.4193L16.7311 19.931ZM21.1439 15.203L21.6922 15.7147L21.1439 15.203ZM27.25 21.389V29H28.75V21.389H27.25ZM4.75 29V21.389H3.25V29H4.75ZM10.3078 15.7147L14.7207 20.4428L15.8172 19.4193L11.4044 14.6912L10.3078 15.7147ZM17.2793 20.4428L21.6922 15.7147L20.5956 14.6912L16.1828 19.4193L17.2793 20.4428ZM10.389 15.75C10.3582 15.75 10.3288 15.7372 10.3078 15.7147L11.4044 14.6912C11.1417 14.4098 10.774 14.25 10.389 14.25V15.75ZM14.7207 20.4428C15.4125 21.184 16.5875 21.184 17.2793 20.4428L16.1828 19.4193C16.0839 19.5252 15.9161 19.5252 15.8172 19.4193L14.7207 20.4428ZM28.75 21.389C28.75 17.4463 25.5537 14.25 21.611 14.25V15.75C24.7253 15.75 27.25 18.2747 27.25 21.389H28.75ZM21.611 14.25C21.226 14.25 20.8583 14.4098 20.5956 14.6912L21.6922 15.7147C21.6712 15.7372 21.6418 15.75 21.611 15.75V14.25ZM4.75 21.389C4.75 18.2747 7.27468 15.75 10.389 15.75V14.25C6.44625 14.25 3.25 17.4463 3.25 21.389H4.75Z" fill="#2D71C6"/>
<path d="M21.5 21V26" stroke="#2D71C6" stroke-width="1.5" stroke-miterlimit="10" stroke-linecap="round"/>
<path d="M19 23.5L24 23.5" stroke="#2D71C6" stroke-width="1.5" stroke-miterlimit="10" stroke-linecap="round"/>
</svg>
