<svg width="24" height="24" viewBox="0 0 24 24" fill="none" xmlns="http://www.w3.org/2000/svg">
<g clip-path="url(#clip0)">
<path d="M13.3814 12.0033L1.35645 23.6081C0.793338 23.2224 0.459009 22.5809 0.464921 21.8974V2.10918C0.459009 1.42566 0.793338 0.784124 1.35645 0.398438L13.3814 12.0033Z" fill="#2196F3"/>
<path d="M17.5841 7.94793L13.3765 12.0014L1.35156 0.396616C1.39687 0.361424 1.44406 0.328683 1.49289 0.298547C2.12842 -0.0874971 2.92224 -0.09996 3.56955 0.265858L17.5841 7.94793Z" fill="#4CAF50"/>
<path d="M22.6818 11.9988C22.6897 12.7705 22.2713 13.4832 21.5946 13.8512L17.5826 16.0523L13.375 11.9988L17.5826 7.94531L21.5946 10.1464C22.2713 10.5145 22.6897 11.2272 22.6818 11.9988Z" fill="#FFC107"/>
<path d="M17.5841 16.0574L3.56955 23.7395C2.92082 24.0997 2.13 24.0872 1.49289 23.7068C1.44406 23.6767 1.39687 23.6439 1.35156 23.6088L13.3765 12.0039L17.5841 16.0574Z" fill="#F44336"/>
</g>
<defs>
<clipPath id="clip0">
<rect width="24" height="24" fill="white"/>
</clipPath>
</defs>
</svg>
